<mxfile host="app.diagrams.net" modified="2023-11-09T17:50:22.893Z" agent="Mozilla/5.0 (Windows NT 10.0; Win64; x64) AppleWebKit/537.36 (KHTML, like Gecko) Chrome/118.0.0.0 Safari/537.36" etag="O1Xl0Pn2aIFhU_P1mhhg" version="22.1.0" type="device">
  <diagram id="C5RBs43oDa-KdzZeNtuy" name="Page-1">
    <mxGraphModel dx="2261" dy="758" grid="1" gridSize="10" guides="1" tooltips="1" connect="1" arrows="1" fold="1" page="1" pageScale="1" pageWidth="827" pageHeight="1169" math="0" shadow="0">
      <root>
        <mxCell id="WIyWlLk6GJQsqaUBKTNV-0" />
        <mxCell id="WIyWlLk6GJQsqaUBKTNV-1" parent="WIyWlLk6GJQsqaUBKTNV-0" />
        <mxCell id="725HkZVntdM-iU4HISxW-3" style="edgeStyle=orthogonalEdgeStyle;rounded=0;orthogonalLoop=1;jettySize=auto;html=1;entryX=0.5;entryY=0;entryDx=0;entryDy=0;" parent="WIyWlLk6GJQsqaUBKTNV-1" source="725HkZVntdM-iU4HISxW-1" target="725HkZVntdM-iU4HISxW-2" edge="1">
          <mxGeometry relative="1" as="geometry" />
        </mxCell>
        <mxCell id="725HkZVntdM-iU4HISxW-1" value="start" style="ellipse;whiteSpace=wrap;html=1;" parent="WIyWlLk6GJQsqaUBKTNV-1" vertex="1">
          <mxGeometry x="-460" y="60" width="120" height="80" as="geometry" />
        </mxCell>
        <mxCell id="725HkZVntdM-iU4HISxW-5" style="edgeStyle=orthogonalEdgeStyle;rounded=0;orthogonalLoop=1;jettySize=auto;html=1;entryX=0.5;entryY=0;entryDx=0;entryDy=0;" parent="WIyWlLk6GJQsqaUBKTNV-1" source="725HkZVntdM-iU4HISxW-2" target="725HkZVntdM-iU4HISxW-4" edge="1">
          <mxGeometry relative="1" as="geometry" />
        </mxCell>
        <mxCell id="725HkZVntdM-iU4HISxW-2" value="&lt;div&gt;oldNum,newNum,money=0&lt;/div&gt;&lt;div&gt;,realNum=newNum-oldNUm&lt;/div&gt;" style="shape=parallelogram;perimeter=parallelogramPerimeter;whiteSpace=wrap;html=1;fixedSize=1;" parent="WIyWlLk6GJQsqaUBKTNV-1" vertex="1">
          <mxGeometry x="-520" y="200" width="240" height="120" as="geometry" />
        </mxCell>
        <mxCell id="725HkZVntdM-iU4HISxW-7" value="true" style="edgeStyle=orthogonalEdgeStyle;rounded=0;orthogonalLoop=1;jettySize=auto;html=1;entryX=0;entryY=0.5;entryDx=0;entryDy=0;" parent="WIyWlLk6GJQsqaUBKTNV-1" source="725HkZVntdM-iU4HISxW-4" target="725HkZVntdM-iU4HISxW-6" edge="1">
          <mxGeometry relative="1" as="geometry" />
        </mxCell>
        <mxCell id="725HkZVntdM-iU4HISxW-4" value="realNum&amp;gt;200" style="rhombus;whiteSpace=wrap;html=1;" parent="WIyWlLk6GJQsqaUBKTNV-1" vertex="1">
          <mxGeometry x="-495" y="400" width="190" height="120" as="geometry" />
        </mxCell>
        <mxCell id="725HkZVntdM-iU4HISxW-35" style="edgeStyle=orthogonalEdgeStyle;rounded=0;orthogonalLoop=1;jettySize=auto;html=1;" parent="WIyWlLk6GJQsqaUBKTNV-1" source="725HkZVntdM-iU4HISxW-6" target="725HkZVntdM-iU4HISxW-34" edge="1">
          <mxGeometry relative="1" as="geometry" />
        </mxCell>
        <mxCell id="725HkZVntdM-iU4HISxW-6" value="Money=30000*realNum" style="rounded=1;whiteSpace=wrap;html=1;" parent="WIyWlLk6GJQsqaUBKTNV-1" vertex="1">
          <mxGeometry x="-150" y="405" width="170" height="110" as="geometry" />
        </mxCell>
        <mxCell id="725HkZVntdM-iU4HISxW-8" style="edgeStyle=orthogonalEdgeStyle;rounded=0;orthogonalLoop=1;jettySize=auto;html=1;entryX=0;entryY=0.5;entryDx=0;entryDy=0;" parent="WIyWlLk6GJQsqaUBKTNV-1" source="725HkZVntdM-iU4HISxW-9" target="725HkZVntdM-iU4HISxW-10" edge="1">
          <mxGeometry relative="1" as="geometry" />
        </mxCell>
        <mxCell id="725HkZVntdM-iU4HISxW-30" value="true" style="edgeLabel;html=1;align=center;verticalAlign=middle;resizable=0;points=[];" parent="725HkZVntdM-iU4HISxW-8" vertex="1" connectable="0">
          <mxGeometry x="-0.0824" y="-2" relative="1" as="geometry">
            <mxPoint as="offset" />
          </mxGeometry>
        </mxCell>
        <mxCell id="725HkZVntdM-iU4HISxW-9" value="realNum&amp;gt;150" style="rhombus;whiteSpace=wrap;html=1;" parent="WIyWlLk6GJQsqaUBKTNV-1" vertex="1">
          <mxGeometry x="-495" y="600" width="190" height="120" as="geometry" />
        </mxCell>
        <mxCell id="725HkZVntdM-iU4HISxW-10" value="Money=25000*realNum" style="rounded=1;whiteSpace=wrap;html=1;" parent="WIyWlLk6GJQsqaUBKTNV-1" vertex="1">
          <mxGeometry x="-150" y="605" width="170" height="110" as="geometry" />
        </mxCell>
        <mxCell id="725HkZVntdM-iU4HISxW-17" style="edgeStyle=orthogonalEdgeStyle;rounded=0;orthogonalLoop=1;jettySize=auto;html=1;entryX=0;entryY=0.5;entryDx=0;entryDy=0;" parent="WIyWlLk6GJQsqaUBKTNV-1" source="725HkZVntdM-iU4HISxW-18" target="725HkZVntdM-iU4HISxW-19" edge="1">
          <mxGeometry relative="1" as="geometry" />
        </mxCell>
        <mxCell id="725HkZVntdM-iU4HISxW-31" value="true" style="edgeLabel;html=1;align=center;verticalAlign=middle;resizable=0;points=[];" parent="725HkZVntdM-iU4HISxW-17" vertex="1" connectable="0">
          <mxGeometry x="-0.0353" y="1" relative="1" as="geometry">
            <mxPoint as="offset" />
          </mxGeometry>
        </mxCell>
        <mxCell id="725HkZVntdM-iU4HISxW-28" value="false" style="edgeStyle=orthogonalEdgeStyle;rounded=0;orthogonalLoop=1;jettySize=auto;html=1;entryX=0.5;entryY=0;entryDx=0;entryDy=0;" parent="WIyWlLk6GJQsqaUBKTNV-1" source="725HkZVntdM-iU4HISxW-18" target="725HkZVntdM-iU4HISxW-21" edge="1">
          <mxGeometry relative="1" as="geometry" />
        </mxCell>
        <mxCell id="725HkZVntdM-iU4HISxW-18" value="realNum&amp;gt;100" style="rhombus;whiteSpace=wrap;html=1;" parent="WIyWlLk6GJQsqaUBKTNV-1" vertex="1">
          <mxGeometry x="-500" y="780" width="190" height="120" as="geometry" />
        </mxCell>
        <mxCell id="725HkZVntdM-iU4HISxW-19" value="Money=20000*realNum" style="rounded=1;whiteSpace=wrap;html=1;" parent="WIyWlLk6GJQsqaUBKTNV-1" vertex="1">
          <mxGeometry x="-160" y="785" width="170" height="110" as="geometry" />
        </mxCell>
        <mxCell id="725HkZVntdM-iU4HISxW-20" style="edgeStyle=orthogonalEdgeStyle;rounded=0;orthogonalLoop=1;jettySize=auto;html=1;entryX=0;entryY=0.5;entryDx=0;entryDy=0;" parent="WIyWlLk6GJQsqaUBKTNV-1" source="725HkZVntdM-iU4HISxW-21" target="725HkZVntdM-iU4HISxW-22" edge="1">
          <mxGeometry relative="1" as="geometry" />
        </mxCell>
        <mxCell id="725HkZVntdM-iU4HISxW-32" value="true" style="edgeLabel;html=1;align=center;verticalAlign=middle;resizable=0;points=[];" parent="725HkZVntdM-iU4HISxW-20" vertex="1" connectable="0">
          <mxGeometry x="-0.0118" y="1" relative="1" as="geometry">
            <mxPoint as="offset" />
          </mxGeometry>
        </mxCell>
        <mxCell id="725HkZVntdM-iU4HISxW-29" value="false" style="edgeStyle=orthogonalEdgeStyle;rounded=0;orthogonalLoop=1;jettySize=auto;html=1;entryX=0.5;entryY=0;entryDx=0;entryDy=0;" parent="WIyWlLk6GJQsqaUBKTNV-1" source="725HkZVntdM-iU4HISxW-21" target="725HkZVntdM-iU4HISxW-24" edge="1">
          <mxGeometry relative="1" as="geometry" />
        </mxCell>
        <mxCell id="725HkZVntdM-iU4HISxW-21" value="realNum&amp;gt;50" style="rhombus;whiteSpace=wrap;html=1;" parent="WIyWlLk6GJQsqaUBKTNV-1" vertex="1">
          <mxGeometry x="-500" y="940" width="190" height="120" as="geometry" />
        </mxCell>
        <mxCell id="725HkZVntdM-iU4HISxW-22" value="Money=15000*realNum" style="rounded=1;whiteSpace=wrap;html=1;" parent="WIyWlLk6GJQsqaUBKTNV-1" vertex="1">
          <mxGeometry x="-160" y="945" width="170" height="110" as="geometry" />
        </mxCell>
        <mxCell id="725HkZVntdM-iU4HISxW-23" style="edgeStyle=orthogonalEdgeStyle;rounded=0;orthogonalLoop=1;jettySize=auto;html=1;entryX=0;entryY=0.5;entryDx=0;entryDy=0;" parent="WIyWlLk6GJQsqaUBKTNV-1" source="725HkZVntdM-iU4HISxW-24" target="725HkZVntdM-iU4HISxW-25" edge="1">
          <mxGeometry relative="1" as="geometry">
            <Array as="points">
              <mxPoint x="-160" y="1185" />
            </Array>
          </mxGeometry>
        </mxCell>
        <mxCell id="725HkZVntdM-iU4HISxW-33" value="true" style="edgeLabel;html=1;align=center;verticalAlign=middle;resizable=0;points=[];" parent="725HkZVntdM-iU4HISxW-23" vertex="1" connectable="0">
          <mxGeometry x="0.1176" relative="1" as="geometry">
            <mxPoint as="offset" />
          </mxGeometry>
        </mxCell>
        <mxCell id="725HkZVntdM-iU4HISxW-42" style="edgeStyle=orthogonalEdgeStyle;rounded=0;orthogonalLoop=1;jettySize=auto;html=1;entryX=0;entryY=0.5;entryDx=0;entryDy=0;" parent="WIyWlLk6GJQsqaUBKTNV-1" source="725HkZVntdM-iU4HISxW-24" target="725HkZVntdM-iU4HISxW-41" edge="1">
          <mxGeometry relative="1" as="geometry">
            <Array as="points">
              <mxPoint x="-425" y="1420" />
              <mxPoint x="-220" y="1420" />
              <mxPoint x="-220" y="1410" />
            </Array>
          </mxGeometry>
        </mxCell>
        <mxCell id="725HkZVntdM-iU4HISxW-24" value="realNum&amp;gt;0" style="rhombus;whiteSpace=wrap;html=1;" parent="WIyWlLk6GJQsqaUBKTNV-1" vertex="1">
          <mxGeometry x="-500" y="1125" width="190" height="120" as="geometry" />
        </mxCell>
        <mxCell id="725HkZVntdM-iU4HISxW-39" style="edgeStyle=orthogonalEdgeStyle;rounded=0;orthogonalLoop=1;jettySize=auto;html=1;entryX=1;entryY=1;entryDx=0;entryDy=0;" parent="WIyWlLk6GJQsqaUBKTNV-1" source="725HkZVntdM-iU4HISxW-25" target="725HkZVntdM-iU4HISxW-34" edge="1">
          <mxGeometry relative="1" as="geometry" />
        </mxCell>
        <mxCell id="725HkZVntdM-iU4HISxW-25" value="Money=10000*realNum" style="rounded=1;whiteSpace=wrap;html=1;" parent="WIyWlLk6GJQsqaUBKTNV-1" vertex="1">
          <mxGeometry x="-160" y="1135" width="170" height="110" as="geometry" />
        </mxCell>
        <mxCell id="725HkZVntdM-iU4HISxW-26" value="false" style="edgeStyle=orthogonalEdgeStyle;rounded=0;orthogonalLoop=1;jettySize=auto;html=1;entryX=0.463;entryY=0.008;entryDx=0;entryDy=0;entryPerimeter=0;" parent="WIyWlLk6GJQsqaUBKTNV-1" source="725HkZVntdM-iU4HISxW-4" target="725HkZVntdM-iU4HISxW-9" edge="1">
          <mxGeometry relative="1" as="geometry">
            <Array as="points">
              <mxPoint x="-400" y="601" />
            </Array>
          </mxGeometry>
        </mxCell>
        <mxCell id="725HkZVntdM-iU4HISxW-27" value="false" style="edgeStyle=orthogonalEdgeStyle;rounded=0;orthogonalLoop=1;jettySize=auto;html=1;entryX=0.537;entryY=-0.017;entryDx=0;entryDy=0;entryPerimeter=0;" parent="WIyWlLk6GJQsqaUBKTNV-1" source="725HkZVntdM-iU4HISxW-9" target="725HkZVntdM-iU4HISxW-18" edge="1">
          <mxGeometry relative="1" as="geometry" />
        </mxCell>
        <mxCell id="725HkZVntdM-iU4HISxW-34" value="end" style="ellipse;whiteSpace=wrap;html=1;" parent="WIyWlLk6GJQsqaUBKTNV-1" vertex="1">
          <mxGeometry x="420" y="705" width="120" height="80" as="geometry" />
        </mxCell>
        <mxCell id="725HkZVntdM-iU4HISxW-36" style="edgeStyle=orthogonalEdgeStyle;rounded=0;orthogonalLoop=1;jettySize=auto;html=1;entryX=0.317;entryY=0.038;entryDx=0;entryDy=0;entryPerimeter=0;" parent="WIyWlLk6GJQsqaUBKTNV-1" source="725HkZVntdM-iU4HISxW-10" target="725HkZVntdM-iU4HISxW-34" edge="1">
          <mxGeometry relative="1" as="geometry" />
        </mxCell>
        <mxCell id="725HkZVntdM-iU4HISxW-37" style="edgeStyle=orthogonalEdgeStyle;rounded=0;orthogonalLoop=1;jettySize=auto;html=1;entryX=-0.017;entryY=0.6;entryDx=0;entryDy=0;entryPerimeter=0;" parent="WIyWlLk6GJQsqaUBKTNV-1" source="725HkZVntdM-iU4HISxW-19" target="725HkZVntdM-iU4HISxW-34" edge="1">
          <mxGeometry relative="1" as="geometry" />
        </mxCell>
        <mxCell id="725HkZVntdM-iU4HISxW-38" style="edgeStyle=orthogonalEdgeStyle;rounded=0;orthogonalLoop=1;jettySize=auto;html=1;entryX=0.337;entryY=1.025;entryDx=0;entryDy=0;entryPerimeter=0;" parent="WIyWlLk6GJQsqaUBKTNV-1" source="725HkZVntdM-iU4HISxW-22" target="725HkZVntdM-iU4HISxW-34" edge="1">
          <mxGeometry relative="1" as="geometry" />
        </mxCell>
        <mxCell id="725HkZVntdM-iU4HISxW-43" style="edgeStyle=orthogonalEdgeStyle;rounded=0;orthogonalLoop=1;jettySize=auto;html=1;entryX=1;entryY=0.5;entryDx=0;entryDy=0;" parent="WIyWlLk6GJQsqaUBKTNV-1" source="725HkZVntdM-iU4HISxW-41" target="725HkZVntdM-iU4HISxW-34" edge="1">
          <mxGeometry relative="1" as="geometry" />
        </mxCell>
        <mxCell id="725HkZVntdM-iU4HISxW-41" value="Số liệu sai" style="rounded=0;whiteSpace=wrap;html=1;" parent="WIyWlLk6GJQsqaUBKTNV-1" vertex="1">
          <mxGeometry x="-110" y="1380" width="170" height="130" as="geometry" />
        </mxCell>
      </root>
    </mxGraphModel>
  </diagram>
</mxfile>
